{"title":"Lying  Perfect 2010.DvDRip.H264.Feel-Free","uid":5862945,"size":1072700564,"categoryP":"video","categoryS":"movies","magnet":"?xt=urn:btih:0a53da672741cea64bca931991bee79fde50560a&amp;dn=Lying++Perfect+2010.DvDRip.H264.Feel-Free&amp;tr=udp%3A%2F%2Ftracker.openbittorrent.com%3A80&amp;tr=udp%3A%2F%2Fopen.demonii.com%3A1337&amp;tr=udp%3A%2F%2Ftracker.coppersurfer.tk%3A6969&amp;tr=udp%3A%2F%2Fexodus.desync.com%3A6969","seeders":2,"leechers":0,"uploader":"neon","files":-1,"time":1286032423,"description":"Genre:Comedy | Drama | Romance\nLanguage:English\n &lt;a href=&quot; http://www.imdb.com/title/tt1535565/&quot; rel=&quot;nofollow&quot; target=&quot;_NEW&quot;&gt; http://www.imdb.com/title/tt1535565/&lt;/a&gt;\nSource:DVD\nSubtitles:Romana\n\n\n\n &lt;a href=&quot;\nhttp://www.youtube.com/watch?v=krG91OEJg_M&amp;feature=player_embedded&quot; rel=&quot;nofollow&quot; target=&quot;_NEW&quot;&gt;\nhttp://www.youtube.com/watch?v=krG91OEJg_M&amp;feature=player_embedded&lt;/a&gt;\n\nGeneral\nComplete name\nFormat : MPEG-4\nFormat profile : Base Media\nCodec ID : isom\nFile size : 1 023 MiB\nDuration : 1h 24mn\nOverall bit rate : 1 685 Kbps\nVideo #1\nCodec ID : avc1\nCodec ID/Info : Advanced Video Coding\nDuration : 1h 24mn\nBit rate mode : Variable\nBit rate : 1 515 Kbps\nWidth : 720 pixels\nHeight : 384 pixels\nDisplay aspect ratio : 1.875\nFrame rate mode : Constant\nFrame rate : 25.000 fps\nResolution : 24 bits\nColorimetry : 4:2:0\nScan type : Progressive\nBits/(Pixel*Frame) : 0.219\nStream size : 919 MiB (90%)\nAudio #2\nID : 2\nFormat : AAC\nFormat/Info : Advanced Audio Codec\nFormat version : Version 4\nFormat profile : LC\nFormat settings, SBR : No\nCodec ID : 40\nDuration : 1h 24mn\nBit rate mode : Variable\nBit rate : 165 Kbps\nChannel(s) : 2 channels\nChannel positions : L R\nSampling rate : 48.0 KHz\nResolution : 16 bits\nStream size : 100 MiB (10%)","torrent":{"xt":"urn:btih:0a53da672741cea64bca931991bee79fde50560a","amp;dn":"Lying++Perfect+2010.DvDRip.H264.Feel-Free","amp;tr":["udp%3A%2F%2Ftracker.openbittorrent.com%3A80","udp%3A%2F%2Fopen.demonii.com%3A1337","udp%3A%2F%2Ftracker.coppersurfer.tk%3A6969","udp%3A%2F%2Fexodus.desync.com%3A6969"],"infoHash":"0a53da672741cea64bca931991bee79fde50560a","infoHashBuffer":{"type":"Buffer","data":[10,83,218,103,39,65,206,166,75,202,147,25,145,190,231,159,222,80,86,10]},"announce":[],"urlList":[]}}